<svg id="Laag_1" data-name="Laag 1" xmlns="http://www.w3.org/2000/svg" viewBox="0 0 345.96 345.96"><defs><style>.cls-1{fill:#d46a56;}.cls-2{fill:#745542;}.cls-3{fill:#f6e0c2;}.cls-4{fill:#c2b09a;}.cls-5{fill:#402e26;}.cls-6{fill:#b05548;}</style></defs><title>Bruin_Brood</title><circle id="Container" class="cls-1" cx="172.98" cy="172.98" r="172.98"/><path id="BroodKorst" class="cls-2" d="M160.78,69.28h24.31c1,.26,2,.58,3.08.78,8.86,1.67,17.9,2.69,26.55,5.1,19.16,5.34,36.39,14.3,49.45,29.86,7.39,8.79,12,18.82,12.45,30.5.55,15.59-5.9,28.26-16.64,39a9,9,0,0,0-2.86,7.06c.11,24.16.08,48.33.05,72.5,0,13.4-9.23,22.62-22.63,22.63q-61.57,0-123.14,0c-13.61,0-22.7-9.23-22.71-23,0-21.74-.21-43.48.11-65.21.11-7-.17-13.35-6.5-17.77a5.12,5.12,0,0,1-.78-.93c-6.51-7.52-10-16.47-12.32-26v-13A62.4,62.4,0,0,1,91.12,95.53c13.59-11.23,29.26-18.13,46.27-22.07C145.09,71.68,153,70.65,160.78,69.28ZM172.9,263.81q30.16,0,60.34,0c7.7,0,11-3.35,11-11.11,0-23.35.24-46.71-.14-70.06-.12-7.39,1.5-12.69,7.15-18.19,16.81-16.36,16.44-37.61.18-54.58a70.78,70.78,0,0,0-22.05-15.5c-30.87-14-62.71-15.54-95.16-6.71C118.4,92,104,99.08,92.83,111.62,84.55,121,80.29,131.73,83,144.4c2.14,10.07,8.1,17.83,15.77,24.33a7.57,7.57,0,0,1,2.89,6.54c-.11,25.38-.07,50.76-.06,76.13,0,9.64,2.81,12.41,12.59,12.41Z"/><path id="InnerBrood" class="cls-3" d="M172.85,263.81H114.13c-9.78,0-12.6-2.77-12.6-12.41,0-25.37,0-50.75.06-76.13a7.54,7.54,0,0,0-2.88-6.54c-7.67-6.5-13.63-14.26-15.78-24.33-2.69-12.67,1.56-23.45,9.85-32.78,11.12-12.54,25.57-19.65,41.43-24,32.45-8.83,64.29-7.34,95.15,6.71a70.7,70.7,0,0,1,22.06,15.5c16.25,17,16.63,38.22-.18,54.58-5.66,5.5-7.28,10.8-7.16,18.19.39,23.35.15,46.71.14,70.06,0,7.76-3.33,11.11-11,11.11Q203,263.83,172.85,263.81Z"/><path id="InnerBroodShadow" class="cls-4" d="M251.24,164.45c-5.66,5.5-7.28,10.81-7.16,18.2.39,23.34.15,46.7.14,70,0,6.81-2.56,10.22-8.4,11l-.58.06c-.64.06-1.33.09-2.05.09H172.93V82.17q6.62,0,13.2.56,5.48.51,10.92,1.48,2.72.5,5.43,1.09s0,0,0,0a137.34,137.34,0,0,1,26.86,9.07,70.7,70.7,0,0,1,22.06,15.5C267.67,126.85,268.05,148.09,251.24,164.45Z"/><path id="BroodKorstShadow" class="cls-5" d="M260,174.52a9,9,0,0,0-2.86,7.06c.11,24.17.08,48.34.05,72.5,0,13.41-9.23,22.63-22.63,22.63q-30.81,0-61.61,0V263.82h60.26c.72,0,1.41,0,2.05-.09l.58-.06c5.87-.73,8.45-4.14,8.46-11,0-23.35.24-46.71-.14-70-.12-7.39,1.5-12.7,7.15-18.2,16.81-16.36,16.44-37.6.18-54.58a70.78,70.78,0,0,0-22.05-15.5A135.9,135.9,0,0,0,202.5,85.3s0,0,0,0q-2.72-.61-5.43-1.09-5.45-1-10.92-1.48-6.58-.62-13.2-.56V69.29h12.16c1,.27,2,.59,3.08.78,8.86,1.67,17.9,2.7,26.55,5.11,19.16,5.33,36.39,14.29,49.45,29.85,7.39,8.79,12,18.82,12.45,30.51C277.17,151.12,270.72,163.79,260,174.52Z"/><path id="ContainerSHadow" class="cls-6" d="M341.65,210.58A173.19,173.19,0,0,1,150,344.48L95,270.63c4,3.87,9.53,6.07,16.18,6.08h61.53v0q30.79,0,61.61,0c6.71,0,12.36-2.31,16.34-6.3a21,21,0,0,0,5.35-9.28,25.8,25.8,0,0,0,.95-7.06q0-8.39,0-16.77,0-18.66,0-37.32,0-9.21,0-18.42a11.82,11.82,0,0,1,.24-2.53c.05-.23.11-.45.18-.67a1.17,1.17,0,0,1,.06-.2,7.68,7.68,0,0,1,.72-1.57,10.55,10.55,0,0,1,1.65-2.07,64.45,64.45,0,0,0,9.14-11.32c.69-1.08,1.33-2.19,1.92-3.31,0,0,0,0,0,0,.39-.73.76-1.48,1.12-2.23a.94.94,0,0,0,.06-.15c.49-1,.93-2.08,1.33-3.15a47.29,47.29,0,0,0,3.06-18.8c0-.37,0-.74,0-1.11-.06-1.08-.16-2.15-.3-3.2v0c-.09-.7-.19-1.39-.32-2.07v0c-.12-.69-.25-1.37-.41-2l-.24-1a46.91,46.91,0,0,0-3.48-9.47Z"/></svg>